# Blender v2.79 (sub 0) OBJ File: ''
# www.blender.org
mtllib HK416 EYEBallWhite.mtl
o White_Eye_HK416_V081.020
v 0.035742 1.492476 0.048560
v 0.054425 1.497877 0.043179
v 0.030173 1.494275 0.049962
v 0.049023 1.494889 0.044468
v 0.038676 1.510693 0.020720
v 0.041533 1.528438 0.036647
v 0.031562 1.526649 0.038847
v 0.026284 1.523468 0.040146
v 0.021964 1.519039 0.040529
v 0.019722 1.516359 0.041021
v 0.019022 1.512497 0.040117
v 0.018666 1.507936 0.039232
v 0.019170 1.503035 0.038343
v 0.020966 1.498348 0.037236
v 0.023155 1.495451 0.036666
v 0.026766 1.493668 0.034975
v 0.034382 1.492309 0.032945
v 0.042158 1.493025 0.031369
v 0.049375 1.495411 0.028712
v 0.052369 1.498728 0.027528
v 0.057454 1.506968 0.027449
v 0.060739 1.512697 0.027698
v 0.063308 1.519335 0.028888
v 0.059727 1.522319 0.030663
v 0.057823 1.523877 0.031590
v 0.051242 1.526609 0.033967
v -0.038676 1.510693 0.020720
v -0.041533 1.528438 0.036647
v -0.031562 1.526649 0.038847
v -0.026284 1.523468 0.040146
v -0.021964 1.519039 0.040529
v -0.019722 1.516359 0.041021
v -0.019022 1.512497 0.040117
v -0.018666 1.507936 0.039232
v -0.019170 1.503035 0.038343
v -0.020966 1.498348 0.037236
v -0.023155 1.495451 0.036666
v -0.026766 1.493668 0.034975
v -0.034382 1.492309 0.032945
v -0.042158 1.493025 0.031369
v -0.049375 1.495411 0.028712
v -0.052369 1.498728 0.027528
v -0.057454 1.506968 0.027449
v -0.060739 1.512697 0.027698
v -0.063308 1.519335 0.028888
v -0.059727 1.522319 0.030663
v -0.057823 1.523877 0.031590
v -0.051242 1.526609 0.033967
v 0.021847 1.506815 0.053799
v 0.043552 1.523242 0.051196
v 0.023076 1.514218 0.055353
v 0.024516 1.498409 0.051342
v 0.042528 1.493199 0.046286
v 0.060483 1.506315 0.042411
v 0.062904 1.512147 0.042399
v 0.064293 1.516507 0.042659
v 0.060330 1.521774 0.045438
v 0.030114 1.520209 0.054537
v 0.035742 1.521906 0.053170
v 0.053324 1.523392 0.048168
v 0.022372 1.502270 0.052572
v 0.026577 1.496315 0.050707
v 0.021206 1.511707 0.054966
v 0.026314 1.517286 0.055138
v 0.063903 1.519689 0.043533
v -0.021847 1.506815 0.053799
v -0.043552 1.523242 0.051196
v -0.023076 1.514218 0.055353
v -0.024516 1.498409 0.051342
v -0.035742 1.492476 0.048560
v -0.042528 1.493199 0.046286
v -0.054425 1.497877 0.043179
v -0.060483 1.506315 0.042411
v -0.062904 1.512147 0.042399
v -0.064293 1.516507 0.042659
v -0.060330 1.521774 0.045438
v -0.030173 1.494275 0.049962
v -0.049023 1.494889 0.044468
v -0.030114 1.520209 0.054537
v -0.035742 1.521906 0.053170
v -0.053324 1.523392 0.048168
v -0.022372 1.502270 0.052572
v -0.026577 1.496315 0.050707
v -0.021206 1.511707 0.054966
v -0.026314 1.517286 0.055138
v -0.063903 1.519689 0.043533
vt 0.908258 0.389920
vt 0.872712 0.385799
vt 0.894092 0.327170
vt 0.828841 0.287096
vt 0.835886 0.276248
vt 0.874717 0.262462
vt 0.902281 0.263252
vt 0.928259 0.270130
vt 0.939576 0.281301
vt 0.959397 0.309584
vt 0.972292 0.329304
vt 0.982878 0.352436
vt 0.970952 0.363915
vt 0.964601 0.369914
vt 0.942044 0.381174
vt 0.822952 0.321879
vt 0.823597 0.304251
vt 0.848197 0.269053
vt 0.853380 0.375637
vt 0.837138 0.360795
vt 0.828618 0.351733
vt 0.825260 0.338093
vt 0.886344 0.367903
vt 0.912933 0.369385
vt 0.866124 0.363121
vt 0.852059 0.353542
vt 0.841618 0.342630
vt 0.834622 0.332330
vt 0.833900 0.317150
vt 0.834702 0.300789
vt 0.841365 0.286506
vt 0.848141 0.278555
vt 0.860341 0.270446
vt 0.879549 0.262752
vt 0.903625 0.263786
vt 0.926899 0.268347
vt 0.946625 0.277793
vt 0.969916 0.306559
vt 0.979796 0.326845
vt 0.985696 0.342107
vt 0.978176 0.349070
vt 0.967135 0.356102
vt 0.945230 0.363034
vt 0.908258 0.389920
vt 0.894092 0.327170
vt 0.872712 0.385799
vt 0.828841 0.287096
vt 0.835886 0.276248
vt 0.874717 0.262462
vt 0.902281 0.263252
vt 0.928259 0.270130
vt 0.939576 0.281301
vt 0.959397 0.309584
vt 0.972292 0.329304
vt 0.982878 0.352436
vt 0.970952 0.363915
vt 0.964601 0.369914
vt 0.942044 0.381174
vt 0.822952 0.321879
vt 0.823597 0.304251
vt 0.848197 0.269053
vt 0.853380 0.375637
vt 0.837138 0.360795
vt 0.828618 0.351733
vt 0.825260 0.338093
vt 0.912933 0.369385
vt 0.886344 0.367903
vt 0.866124 0.363121
vt 0.852059 0.353542
vt 0.841618 0.342630
vt 0.834622 0.332330
vt 0.833900 0.317150
vt 0.834702 0.300789
vt 0.841365 0.286506
vt 0.848141 0.278555
vt 0.860341 0.270446
vt 0.879549 0.262752
vt 0.903625 0.263786
vt 0.926899 0.268347
vt 0.946625 0.277793
vt 0.969916 0.306559
vt 0.979796 0.326845
vt 0.985696 0.342107
vt 0.978176 0.349070
vt 0.967135 0.356102
vt 0.945230 0.363034
vn 0.0600 -0.9839 0.1683
vn 0.3131 -0.9401 0.1346
vn 0.1979 -0.1604 0.9670
vn 0.8450 0.4129 0.3398
vn 0.6523 0.7034 0.2825
vn 0.1433 0.9075 0.3948
vn -0.0838 0.9199 0.3831
vn -0.3003 0.8600 0.4126
vn -0.6453 0.5842 0.4923
vn -0.7344 0.4370 0.5194
vn -0.7604 0.2566 0.5966
vn -0.8100 -0.1794 0.5584
vn -0.4588 -0.7430 0.4873
vn -0.2933 -0.9039 0.3114
vn -0.1378 -0.9597 0.2449
vn 0.9611 -0.0006 0.2762
vn 0.9366 0.1934 0.2922
vn 0.4068 0.8427 0.3528
vn 0.5767 -0.8035 0.1474
vn 0.7131 -0.6751 0.1890
vn 0.8452 -0.5101 0.1595
vn 0.9427 -0.1781 0.2820
vn 0.1791 -0.9230 -0.3407
vn -0.0281 -0.9523 -0.3040
vn 0.4703 -0.8212 -0.3232
vn 0.6442 -0.7080 -0.2893
vn 0.8032 -0.5406 -0.2502
vn 0.9734 -0.1211 -0.1943
vn 0.9764 0.1056 -0.1884
vn 0.9348 0.2912 -0.2032
vn 0.8194 0.5375 -0.1992
vn 0.5674 0.8051 -0.1730
vn 0.2976 0.9503 -0.0917
vn 0.0763 0.9965 -0.0352
vn -0.1748 0.9846 0.0013
vn -0.3938 0.9187 0.0311
vn -0.7424 0.6573 0.1293
vn -0.8451 0.5079 0.1670
vn -0.9118 0.3790 0.1580
vn -0.9930 -0.0146 0.1170
vn -0.7087 -0.7052 0.0203
vn -0.4030 -0.9107 -0.0910
vn -0.2269 -0.9514 -0.2080
vn -0.0599 -0.9839 0.1683
vn -0.1979 -0.1604 0.9670
vn -0.3131 -0.9401 0.1346
vn -0.8450 0.4129 0.3398
vn -0.6523 0.7034 0.2825
vn -0.1433 0.9075 0.3948
vn 0.0838 0.9199 0.3831
vn 0.3003 0.8600 0.4126
vn 0.6453 0.5842 0.4922
vn 0.7344 0.4370 0.5194
vn 0.7604 0.2566 0.5966
vn 0.8100 -0.1794 0.5584
vn 0.4588 -0.7430 0.4873
vn 0.2933 -0.9039 0.3114
vn 0.1378 -0.9597 0.2449
vn -0.9611 -0.0006 0.2762
vn -0.9366 0.1934 0.2922
vn -0.4068 0.8427 0.3528
vn -0.5767 -0.8035 0.1474
vn -0.7131 -0.6751 0.1890
vn -0.8452 -0.5101 0.1595
vn -0.9427 -0.1781 0.2820
vn 0.0281 -0.9523 -0.3040
vn -0.1790 -0.9230 -0.3407
vn -0.4703 -0.8212 -0.3232
vn -0.6442 -0.7080 -0.2893
vn -0.8032 -0.5406 -0.2502
vn -0.9734 -0.1211 -0.1943
vn -0.9764 0.1056 -0.1884
vn -0.9348 0.2912 -0.2032
vn -0.8194 0.5375 -0.1992
vn -0.5674 0.8051 -0.1730
vn -0.2976 0.9503 -0.0917
vn -0.0763 0.9965 -0.0352
vn 0.1748 0.9846 0.0013
vn 0.3938 0.9187 0.0311
vn 0.7424 0.6573 0.1293
vn 0.8451 0.5079 0.1670
vn 0.9118 0.3790 0.1580
vn 0.9930 -0.0146 0.1170
vn 0.7087 -0.7052 0.0203
vn 0.4030 -0.9107 -0.0910
vn 0.2269 -0.9514 -0.2081
usemtl White_Eye
s 1
f 6/1/1 7/2/2 5/3/3
f 14/4/4 15/5/5 5/3/3
f 17/6/6 18/7/7 5/3/3
f 18/7/7 19/8/8 5/3/3
f 20/9/9 21/10/10 5/3/3
f 21/10/10 22/11/11 5/3/3
f 22/11/11 23/12/12 5/3/3
f 23/12/12 24/13/13 5/3/3
f 25/14/14 26/15/15 5/3/3
f 12/16/16 13/17/17 5/3/3
f 16/18/18 17/6/6 5/3/3
f 19/8/8 20/9/9 5/3/3
f 8/19/19 9/20/20 5/3/3
f 7/2/2 8/19/19 5/3/3
f 10/21/21 11/22/22 5/3/3
f 26/15/15 6/1/1 5/3/3
f 13/17/17 14/4/4 5/3/3
f 15/5/5 16/18/18 5/3/3
f 11/22/22 12/16/16 5/3/3
f 9/20/20 10/21/21 5/3/3
f 24/13/13 25/14/14 5/3/3
f 59/23/23 7/2/2 50/24/24
f 50/24/24 7/2/2 6/1/1
f 58/25/25 8/19/19 59/23/23
f 59/23/23 8/19/19 7/2/2
f 58/25/25 64/26/26 8/19/19
f 8/19/19 64/26/26 9/20/20
f 51/27/27 10/21/21 64/26/26
f 64/26/26 10/21/21 9/20/20
f 51/27/27 63/28/28 10/21/21
f 10/21/21 63/28/28 11/22/22
f 63/28/28 49/29/29 11/22/22
f 11/22/22 49/29/29 12/16/16
f 49/29/29 61/30/30 12/16/16
f 12/16/16 61/30/30 13/17/17
f 61/30/30 52/31/31 13/17/17
f 13/17/17 52/31/31 14/4/4
f 52/31/31 62/32/32 14/4/4
f 14/4/4 62/32/32 15/5/5
f 62/32/32 3/33/33 15/5/5
f 15/5/5 3/33/33 16/18/18
f 3/33/33 1/34/34 16/18/18
f 16/18/18 1/34/34 17/6/6
f 1/34/34 53/35/35 17/6/6
f 17/6/6 53/35/35 18/7/7
f 53/35/35 4/36/36 18/7/7
f 18/7/7 4/36/36 19/8/8
f 4/36/36 2/37/37 19/8/8
f 19/8/8 2/37/37 20/9/9
f 54/38/38 21/10/10 2/37/37
f 2/37/37 21/10/10 20/9/9
f 55/39/39 22/11/11 54/38/38
f 54/38/38 22/11/11 21/10/10
f 56/40/40 23/12/12 55/39/39
f 55/39/39 23/12/12 22/11/11
f 65/41/41 24/13/13 56/40/40
f 56/40/40 24/13/13 23/12/12
f 57/42/42 25/14/14 65/41/41
f 65/41/41 25/14/14 24/13/13
f 60/43/43 26/15/15 57/42/42
f 57/42/42 26/15/15 25/14/14
f 50/24/24 6/1/1 60/43/43
f 60/43/43 6/1/1 26/15/15
f 28/44/44 27/45/45 29/46/46
f 36/47/47 27/45/45 37/48/48
f 39/49/49 27/45/45 40/50/50
f 40/50/50 27/45/45 41/51/51
f 42/52/52 27/45/45 43/53/53
f 43/53/53 27/45/45 44/54/54
f 44/54/54 27/45/45 45/55/55
f 45/55/55 27/45/45 46/56/56
f 47/57/57 27/45/45 48/58/58
f 34/59/59 27/45/45 35/60/60
f 38/61/61 27/45/45 39/49/49
f 41/51/51 27/45/45 42/52/52
f 30/62/62 27/45/45 31/63/63
f 29/46/46 27/45/45 30/62/62
f 32/64/64 27/45/45 33/65/65
f 48/58/58 27/45/45 28/44/44
f 35/60/60 27/45/45 36/47/47
f 37/48/48 27/45/45 38/61/61
f 33/65/65 27/45/45 34/59/59
f 31/63/63 27/45/45 32/64/64
f 46/56/56 27/45/45 47/57/57
f 28/44/44 29/46/46 67/66/66
f 67/66/66 29/46/46 80/67/67
f 29/46/46 30/62/62 80/67/67
f 80/67/67 30/62/62 79/68/68
f 79/68/68 30/62/62 85/69/69
f 85/69/69 30/62/62 31/63/63
f 31/63/63 32/64/64 85/69/69
f 85/69/69 32/64/64 68/70/70
f 68/70/70 32/64/64 84/71/71
f 84/71/71 32/64/64 33/65/65
f 84/71/71 33/65/65 66/72/72
f 66/72/72 33/65/65 34/59/59
f 66/72/72 34/59/59 82/73/73
f 82/73/73 34/59/59 35/60/60
f 82/73/73 35/60/60 69/74/74
f 69/74/74 35/60/60 36/47/47
f 69/74/74 36/47/47 83/75/75
f 83/75/75 36/47/47 37/48/48
f 83/75/75 37/48/48 77/76/76
f 77/76/76 37/48/48 38/61/61
f 77/76/76 38/61/61 70/77/77
f 70/77/77 38/61/61 39/49/49
f 70/77/77 39/49/49 71/78/78
f 71/78/78 39/49/49 40/50/50
f 71/78/78 40/50/50 78/79/79
f 78/79/79 40/50/50 41/51/51
f 78/79/79 41/51/51 72/80/80
f 72/80/80 41/51/51 42/52/52
f 42/52/52 43/53/53 72/80/80
f 72/80/80 43/53/53 73/81/81
f 43/53/53 44/54/54 73/81/81
f 73/81/81 44/54/54 74/82/82
f 44/54/54 45/55/55 74/82/82
f 74/82/82 45/55/55 75/83/83
f 45/55/55 46/56/56 75/83/83
f 75/83/83 46/56/56 86/84/84
f 46/56/56 47/57/57 86/84/84
f 86/84/84 47/57/57 76/85/85
f 47/57/57 48/58/58 76/85/85
f 76/85/85 48/58/58 81/86/86
f 48/58/58 28/44/44 81/86/86
f 81/86/86 28/44/44 67/66/66
